<?xml version="1.0" encoding="UTF-8"?>
<svg width="620px" height="413px" viewBox="0 0 620 413" version="1.1" xmlns="http://www.w3.org/2000/svg" xmlns:xlink="http://www.w3.org/1999/xlink">
    <title>lists</title>
    <g id="Page-1" stroke="none" stroke-width="1" fill="none" fill-rule="evenodd">
        <g id="undraw_To_do_list_re_9nt7" transform="translate(-87.000000, -56.000000)" fill-rule="nonzero">
            <path d="M694.88293,425.69001 C687.83312,434.25001 680.18322,434.03001 679.8131,434.022154 L442.43322,434.022154 C438.574375,434.022154 434.967085,432.104814 432.80285,428.91001 C430.905244,426.156508 430.316375,422.707118 431.19299,419.48001 C431.306375,419.016583 431.453412,418.562044 431.63293,418.12001 C435.162687,409.049589 437.778988,399.649734 439.44299,390.06001 C445.08312,359.31001 446.13293,311.86001 432.87316,239.71001 C410.49328,117.85001 430.28332,74.15001 439.82287,61.02001 C442.017881,58.0224193 445.507945,56.2477583 449.22326,56.2400071 L690.26281,56.2400071 C693.908769,56.2400071 697.343929,57.9486536 699.538125,60.8604442 C701.732322,63.7722349 702.430384,67.5459922 701.42297,71.05001 C691.3131,106.00001 670.50304,198.61001 695.46297,303.43001 C714.02306,381.38001 705.39318,412.94001 694.88293,425.69001 Z" id="Path" fill="#FFFFFF" opacity="0.15"></path>
            <path d="M673.88293,438.69001 C666.83312,447.25001 659.18322,447.03001 658.8131,447.022154 L421.43322,447.022154 C417.574375,447.022154 413.967085,445.104814 411.80285,441.91001 C409.905244,439.156508 409.316375,435.707118 410.19299,432.48001 C410.306375,432.016583 410.453412,431.562044 410.63293,431.12001 C414.162687,422.049589 416.778988,412.649734 418.44299,403.06001 C424.08312,372.31001 425.13293,324.86001 411.87316,252.71001 C389.49328,130.85001 409.28332,87.15001 418.82287,74.02001 C421.017881,71.0224193 424.507945,69.2477583 428.22326,69.2400071 L669.26281,69.2400071 C672.908769,69.2400071 676.343929,70.9486536 678.538125,73.8604442 C680.732322,76.7722349 681.430384,80.5459922 680.42297,84.05001 C670.3131,119.00001 649.50304,211.61001 674.46297,316.43001 C693.02306,394.38001 684.39318,425.94001 673.88293,438.69001 Z" id="Path" fill="#FFFFFF" opacity="0.33"></path>
            <path d="M651.88293,458.69001 C644.83312,467.25001 637.18322,467.03001 636.8131,467.022154 L399.43322,467.022154 C395.574375,467.022154 391.967085,465.104814 389.80285,461.91001 C387.905244,459.156508 387.316375,455.707118 388.19299,452.48001 C388.306375,452.016583 388.453412,451.562044 388.63293,451.12001 C392.162687,442.049589 394.778988,432.649734 396.44299,423.06001 C402.08312,392.31001 403.13293,344.86001 389.87316,272.71001 C367.49328,150.85001 387.28332,107.15001 396.82287,94.02001 C399.017881,91.0224193 402.507945,89.2477583 406.22326,89.2400071 L647.26281,89.2400071 C650.908769,89.2400071 654.343929,90.9486536 656.538125,93.8604442 C658.732322,96.7722349 659.430384,100.545992 658.42297,104.05001 C648.3131,139.00001 627.50304,231.61001 652.46297,336.43001 C671.02306,414.38001 662.39318,445.94001 651.88293,458.69001 Z" id="Path" fill="#FFFFFF"></path>
            <circle id="Oval" fill="#FFFFFF" cx="261.00305" cy="296.5" r="44.5"></circle>
            <circle id="Oval" fill="#45BB60" cx="260.50305" cy="297" r="39"></circle>
            <path d="M256.63725,311.877616 C255.759797,311.879242 254.905607,311.595502 254.20353,311.06918 L254.16,311.0365 L244.99474,304.01925 C243.839199,303.134733 243.243522,301.700786 243.432218,300.257859 C243.620914,298.814932 244.565297,297.582384 245.909431,297.024757 C247.253565,296.46713 248.793111,296.669197 249.94782,297.5548 L255.88439,302.10688 L269.91339,283.81096 C270.570496,282.953938 271.54115,282.393063 272.611804,282.251731 C273.682458,282.110399 274.765404,282.400186 275.62239,283.05734 L275.53516,283.17578 L275.62465,283.05907 C277.406878,284.428832 277.744011,286.982759 276.37827,288.76807 L259.87676,310.28846 C259.103209,311.293618 257.9056,311.881105 256.63725,311.877616 L256.63725,311.877616 Z" id="Path" fill="#FFFFFF"></path>
            <circle id="Oval" fill="#1E1E1E" cx="165.54584" cy="107.00476" r="28.93994"></circle>
            <ellipse id="Oval" fill="#1E1E1E" transform="translate(136.605894, 85.050331) rotate(-45.000000) translate(-136.605894, -85.050331) " cx="136.605894" cy="85.0503307" rx="11.97515" ry="8.98136"></ellipse>
            <ellipse id="Oval" fill="#1E1E1E" transform="translate(184.696438, 77.506680) rotate(-66.869560) translate(-184.696438, -77.506680) " cx="184.696438" cy="77.5066801" rx="8.98136" ry="11.97515"></ellipse>
            <path d="M246.13154,274.08706 C247.611819,271.273456 247.76981,267.94869 246.563,265.007397 C245.35619,262.066105 242.908547,259.810428 239.87869,258.84733 L198.06253,170.38826 L178.93462,183.80133 L226.05322,266.53603 C224.743866,271.84989 227.615912,277.303256 232.738431,279.229734 C237.860949,281.156213 243.614788,278.946872 246.13154,274.08709 L246.13154,274.08706 Z" id="Path" fill="#FFB8B8"></path>
            <path d="M207.65206,185.14633 L185.44351,195.0772 C184.16486,195.648937 182.700674,195.635802 181.432488,195.041216 C180.164301,194.44663 179.217726,193.329487 178.83942,191.98089 L172.29026,168.62772 C169.318691,161.879359 172.368161,153.998931 179.10826,151.00867 C185.848359,148.018408 193.737209,151.046025 196.74614,157.77781 L209.74751,178.1599 C210.500396,179.340999 210.701897,180.791314 210.299507,182.132922 C209.897116,183.47453 208.93069,184.574547 207.65206,185.14633 L207.65206,185.14633 Z" id="Path" fill="#CCCCCC"></path>
            <path d="M105.0845,282.85703 C108.181319,282.137827 110.800521,280.083868 112.237334,277.24783 C113.674146,274.411792 113.780977,271.084999 112.52908,268.16262 L152.13141,178.69054 L129.47684,172.98454 L97.67269,262.72691 C92.7956162,265.209958 90.5464998,270.948348 92.4374556,276.084072 C94.3284114,281.219796 99.7617388,284.129536 105.08453,282.85703 L105.0845,282.85703 Z" id="Path" fill="#FFB8B8"></path>
            <polygon id="Path" fill="#FFB8B8" points="94.289 445.033 105.809 449.227 127.47 406.789 110.467 400.599"></polygon>
            <path d="M89.309667,446.984632 L127.840387,446.984632 L127.840387,461.871502 L104.196507,461.871502 C95.9747291,461.871502 89.309667,455.20642 89.309667,446.984632 L89.309667,446.984632 L89.309667,446.984632 Z" id="Path" fill="#1E1E1E" transform="translate(108.575027, 454.428067) rotate(-159.993480) translate(-108.575027, -454.428067) "></path>
            <path d="M121.53775,420.611005 C120.830888,420.611005 120.132792,420.45451 119.49388,420.15211 L106.2546,413.88121 C104.004807,412.825159 102.933648,410.226074 103.78607,407.89151 L141.14984,304.42333 C141.781457,302.674343 143.363445,301.445165 145.214271,301.265337 C147.065097,301.085508 148.854118,301.987155 149.81061,303.58184 L169.57296,336.51893 C170.468277,338.013121 170.488155,339.874024 169.62496,341.387 L125.73785,418.189 C124.872206,419.689869 123.270361,420.613578 121.53775,420.611005 L121.53775,420.611005 Z" id="Path" fill="#1E1E1E"></path>
            <circle id="Oval" fill="#FFB8B8" cx="166.46368" cy="113.91339" r="24.56103"></circle>
            <path d="M201.21069,225.58298 L157.72269,213.62343 L134.59308,167.36475 C132.333841,162.846302 132.575303,157.480215 135.231231,153.182938 C137.887158,148.885662 142.578804,146.270127 147.63059,146.270127 L182.23,146.270127 C185.821382,146.267841 189.286849,147.593231 191.96013,149.99148 C201.24155,158.30598 220.74101,182.27628 201.39887,225.16485 L201.21069,225.58298 Z" id="Path" fill="#CCCCCC"></path>
            <path d="M146.77039,194.69207 L124.73696,184.37849 C123.468411,183.784676 122.521157,182.668107 122.142034,181.319738 C121.762912,179.971369 121.989473,178.524757 122.76268,177.35686 L136.15315,157.13417 C139.317396,150.474273 147.273969,147.630489 153.942771,150.775925 C160.611573,153.921362 163.477802,161.869877 160.3512,168.54753 L153.42706,191.71046 C153.025483,193.052314 152.059724,194.152918 150.78144,194.725478 C149.503156,195.298038 148.03896,195.285843 146.77039,194.69207 L146.77039,194.69207 Z" id="Path" fill="#CCCCCC"></path>
            <polygon id="Path" fill="#FFB8B8" points="173.428 456.629 185.687 456.629 191.52 409.341 173.425 409.342"></polygon>
            <path d="M170.800595,453.125815 L209.331325,453.125815 L209.331325,468.012685 L185.687435,468.012685 C177.465661,468.012685 170.800595,461.347609 170.800595,453.125815 L170.800595,453.125815 L170.800595,453.125815 Z" id="Path" fill="#1E1E1E" transform="translate(190.065960, 460.569250) rotate(179.997380) translate(-190.065960, -460.569250) "></path>
            <path d="M178.05681,438.609385 C175.784535,438.61271 173.822425,437.019534 173.35912,434.79499 C169.83512,418.19108 151.53278,333.14359 137.24791,289.33619 C122.71374,244.7657 147.46621,224.46448 152.57575,220.84766 C153.119895,220.463263 153.552229,219.941289 153.82857,219.33508 L157.54077,211.16902 C158.326816,209.447319 160.04527,208.34246 161.93792,208.34246 L161.96798,208.34246 C189.79657,208.50867 199.15198,217.28102 201.88233,221.04523 C202.697496,222.179982 202.973063,223.615527 202.63601,224.97146 L185.02833,297.61619 C184.91916,298.066638 184.894439,298.533421 184.95542,298.99288 L202.47369,430.8928 C202.643709,432.17347 202.292262,433.468766 201.498256,434.487871 C200.704249,435.506976 199.534215,436.164494 198.25085,436.3128 L178.6223,438.57697 C178.434582,438.598618 178.245772,438.609385 178.05681,438.609385 Z" id="Path" fill="#1E1E1E"></path>
            <path d="M140.65576,98.46458 C146.268318,102.33293 152.929975,104.391671 159.74644,104.36443 C157.314923,106.05039 154.546821,107.189208 151.63283,107.70243 C160.695836,109.646501 170.062549,109.699132 179.14683,107.85703 C181.166108,107.533247 183.114522,106.86405 184.90661,105.87879 C186.712667,104.870161 188.005111,103.141661 188.46182,101.12409 C189.06547,97.67557 186.37834,94.54252 183.58582,92.43101 C174.927747,85.9842792 163.832007,83.7670489 153.3613,86.39133 C149.98504,87.26405 146.60278,88.73859 144.4098,91.44999 C142.21682,94.16139 141.56723,98.34149 143.65658,101.13352 L140.65576,98.46458 Z" id="Path" fill="#1E1E1E"></path>
            <circle id="Oval" fill="#45BB60" cx="591.50305" cy="192" r="13"></circle>
            <path d="M590.21445,196.959205 C589.921966,196.959748 589.637236,196.865169 589.40321,196.68973 L589.3887,196.67884 L586.33361,194.33975 C585.947311,194.045299 585.747802,193.566868 585.810457,193.085201 C585.873111,192.603534 586.188377,192.192064 586.63715,192.006239 C587.085923,191.820413 587.599787,191.888562 587.98461,192.18494 L589.96346,193.7023 L594.63981,187.60366 C594.858843,187.317983 595.182395,187.131023 595.53928,187.083911 C595.896166,187.0368 596.257149,187.133397 596.54281,187.35245 L596.51373,187.39193 L596.54356,187.35303 C597.137637,187.809616 597.250016,188.660925 596.79477,189.25603 L591.29426,196.42949 C591.036416,196.764536 590.637224,196.960363 590.21445,196.959205 L590.21445,196.959205 Z" id="Path" fill="#FFFFFF"></path>
            <circle id="Oval" fill="#45BB60" cx="591.50305" cy="230" r="13"></circle>
            <path d="M590.21445,234.959205 C589.921966,234.959748 589.637236,234.865169 589.40321,234.68973 L589.3887,234.67884 L586.33361,232.33975 C585.947311,232.045299 585.747802,231.566868 585.810457,231.085201 C585.873111,230.603534 586.188377,230.192064 586.63715,230.006239 C587.085923,229.820413 587.599787,229.888562 587.98461,230.18494 L589.96346,231.7023 L594.63981,225.60366 C594.858843,225.317983 595.182395,225.131023 595.53928,225.083911 C595.896166,225.0368 596.257149,225.133397 596.54281,225.35245 L596.51373,225.39193 L596.54356,225.35303 C597.137637,225.809616 597.250016,226.660925 596.79477,227.25603 L591.29426,234.42949 C591.036416,234.764536 590.637224,234.960363 590.21445,234.959205 Z" id="Path" fill="#FFFFFF"></path>
            <circle id="Oval" fill="#45BB60" cx="598.50305" cy="274" r="13"></circle>
            <path d="M597.21445,278.959205 C596.921966,278.959748 596.637236,278.865169 596.40321,278.68973 L596.3887,278.67884 L593.33361,276.33975 C592.947311,276.045299 592.747802,275.566868 592.810457,275.085201 C592.873111,274.603534 593.188377,274.192064 593.63715,274.006239 C594.085923,273.820413 594.599787,273.888562 594.98461,274.18494 L596.96346,275.7023 L601.63981,269.60366 C601.858843,269.317983 602.182395,269.131023 602.53928,269.083911 C602.896166,269.0368 603.257149,269.133397 603.54281,269.35245 L603.51373,269.39193 L603.54356,269.35303 C604.137637,269.809616 604.250016,270.660925 603.79477,271.25603 L598.29426,278.42949 C598.036416,278.764536 597.637224,278.960363 597.21445,278.959205 Z" id="Path" fill="#FFFFFF"></path>
            <path d="M654.77306,335.88001 C629.94299,231.61001 650.65295,139.48001 660.71301,104.72001 C661.927311,100.495785 661.086399,95.9464817 658.442284,92.4354627 C655.798168,88.9244438 651.658103,86.86001 647.26281,86.86001 L406.22326,86.86001 C401.747067,86.864393 397.541589,89.0042241 394.90295,92.62001 C385.17295,106.00001 364.98302,150.37001 387.53332,273.14001 C399.59289,338.82001 399.4132,383.60001 395.47326,413.10001 C393.26281,429.71006 389.85314,441.47001 386.76281,449.40006 L386.43322,450.24006 C385.78235,451.844655 385.442973,453.558511 385.43322,455.29006 C385.38711,459.244857 387.035877,463.03028 389.96301,465.69006 C390.906574,466.574223 391.974548,467.315423 393.13293,467.89006 C394.094662,468.380676 395.112115,468.753374 396.1632,469.00006 C397.233511,469.261302 398.33147,469.392252 399.4332,469.39006 L636.75304,469.39006 C636.78332,469.39006 636.86291,469.40006 637.00304,469.40006 C638.52304,469.40006 646.45324,468.96006 653.64318,460.30006 C664.54308,447.16999 673.59289,414.93 654.77306,335.88001 Z M651.88293,458.69001 C644.83312,467.25001 637.18322,467.03001 636.8131,467.022154 L399.43322,467.022154 C395.574375,467.022154 391.967085,465.104814 389.80285,461.91001 C387.905244,459.156508 387.316375,455.707118 388.19299,452.48001 C388.306375,452.016583 388.453412,451.562044 388.63293,451.12001 C392.162687,442.049589 394.778988,432.649734 396.44299,423.06001 C402.08312,392.31001 403.13293,344.86001 389.87316,272.71001 C367.49328,150.85001 387.28332,107.15001 396.82287,94.02001 C399.017881,91.0224193 402.507945,89.2477583 406.22326,89.2400071 L647.26281,89.2400071 C650.908769,89.2400071 654.343929,90.9486536 656.538125,93.8604442 C658.732322,96.7722349 659.430384,100.545992 658.42297,104.05001 C648.3131,139.00001 627.50304,231.61001 652.46297,336.43001 C671.02306,414.38001 662.39318,445.94001 651.88293,458.69001 Z" id="Shape"></path>
            <path d="M540.26249,200.40033 L416.07649,200.40033 C410.819407,200.40033 406.5577,196.138623 406.5577,190.88154 C406.5577,185.624457 410.819407,181.36275 416.07649,181.36275 L540.26249,181.36275 C545.519573,181.36275 549.78128,185.624457 549.78128,190.88154 C549.78128,196.138623 545.519573,200.40033 540.26249,200.40033 Z" id="Path" fill="#CCCCCC"></path>
            <path d="M540.26249,241.40033 L416.07649,241.40033 C410.819407,241.40033 406.5577,237.138623 406.5577,231.88154 C406.5577,226.624457 410.819407,222.36275 416.07649,222.36275 L540.26249,222.36275 C545.519573,222.36275 549.78128,226.624457 549.78128,231.88154 C549.78128,237.138623 545.519573,241.40033 540.26249,241.40033 Z" id="Path" fill="#CCCCCC"></path>
            <path d="M550.26249,283.40033 L426.07649,283.40033 C420.819407,283.40033 416.5577,279.138623 416.5577,273.88154 C416.5577,268.624457 420.819407,264.36275 426.07649,264.36275 L550.26249,264.36275 C555.519573,264.36275 559.78128,268.624457 559.78128,273.88154 C559.78128,279.138623 555.519573,283.40033 550.26249,283.40033 Z" id="Path" fill="#CCCCCC"></path>
            <path d="M557.26249,327.40033 L433.07649,327.40033 C427.819407,327.40033 423.5577,323.138623 423.5577,317.88154 C423.5577,312.624457 427.819407,308.36275 433.07649,308.36275 L557.26249,308.36275 C562.519573,308.36275 566.78128,312.624457 566.78128,317.88154 C566.78128,323.138623 562.519573,327.40033 557.26249,327.40033 Z" id="Path" fill="#CCCCCC"></path>
            <path d="M557.31515,126.490565 L468.07645,126.490565 C464.673388,126.494048 461.527336,124.680539 459.824798,121.733981 C458.122259,118.787423 458.122259,115.156107 459.824798,112.209549 C461.527336,109.262991 464.673388,107.449482 468.07645,107.452965 L557.31515,107.452965 C562.572235,107.452965 566.833945,111.71468 566.833945,116.971765 C566.833945,122.22885 562.572235,126.490565 557.31515,126.490565 L557.31515,126.490565 Z" id="Path" fill="#45BB60"></path>
            <circle id="Oval" fill="#CCCCCC" cx="606.50305" cy="317.88152" r="13"></circle>
            <path d="M563.26249,370.40033 L439.07649,370.40033 C433.819407,370.40033 429.5577,366.138623 429.5577,360.88154 C429.5577,355.624457 433.819407,351.36275 439.07649,351.36275 L563.26249,351.36275 C568.519573,351.36275 572.78128,355.624457 572.78128,360.88154 C572.78128,366.138623 568.519573,370.40033 563.26249,370.40033 Z" id="Path" fill="#CCCCCC"></path>
            <circle id="Oval" fill="#CCCCCC" cx="612.50305" cy="360.88152" r="13"></circle>
        </g>
    </g>
</svg>